<svg version="1" xmlns="http://www.w3.org/2000/svg" width="346.667" height="346.667" viewBox="0 0 260.000000 260.000000"><path d="M20 42.6c0 1.8 4.8 6.9 9.3 10 13.5 9.1 40.4 15.7 75.1 18.4 55.1 4.3 115.9-6.4 130.9-22.9 2-2.3 3.7-4.6 3.7-5.1 0-.6-1.9-1-4.2-1-2.9 0-5.1.8-7.5 2.6-24.4 18.6-106.9 25.2-161.3 13-14.1-3.2-27.2-8.1-32.6-12.2-3.5-2.7-5.3-3.4-8.9-3.4-2.5 0-4.5.3-4.5.6zM45.5 73c-8.2 3.4-15 20.1-19.5 47.5-2.9 17.2-2.7 19.4 1.4 23.4l3.3 3.2.7-7.3c2.5-26.9 10.8-56.4 16.5-58.6 3.8-1.5 10.2 14 14.1 34.3 2.6 13.7 5.6 39.8 6.5 57.2l.7 13.1 4.1 3.9 4 3.8-.7-16.3c-2.2-56.4-12-98.7-24.1-103.8-3.9-1.6-4.2-1.6-7-.4zM204.7 75c-10.4 8.2-19.4 51.4-21.3 101.5l-.7 17 4-3.7 3.9-3.8 1.2-18.2c1.9-30.6 5.5-54.1 10.8-71.1 2.7-8.6 6.6-15.7 8.7-15.7 5.2 0 13.5 27.2 16.7 54.8l1.2 10.4 3.5-3.4 3.5-3.3-.7-7c-2.6-26.9-10.8-52.4-18.6-57.9-3.2-2.2-9.1-2-12.2.4zM123.4 85.9c-13.2 6-25.6 33.2-31.9 69.8-2 11.8-4.5 35.1-4.5 42.4 0 5 .3 5.8 3.4 8.8l3.4 3.3.5-4.3c.3-2.4 1-11 1.6-19 2.1-28.9 8.4-57.4 16.6-74.6 4.6-9.8 11.8-18.7 16.1-19.7 3.5-.9 7.7 1.6 11.8 7C153 116 162 152.5 165.5 201.4l.7 8.8 3.5-3.3 3.5-3.4-.6-11.9c-1.1-22.3-6.1-50.1-12.2-69.1-6.1-18.6-15.3-32.7-23.9-36.6-5.1-2.3-8-2.3-13.1 0z"/><path d="M208 89.2c-5.8 6.2-9.3 24.6-12.5 65.8-1.7 22.3-1.9 27.8-.6 26.5.4-.6 1.3-9.6 2-20 3.1-50.3 9.5-75.1 18.2-69.7 2.3 1.5 2 .3-.9-3.1-2-2.3-3.7-2.2-6.2.5zM44.6 91.2c-3.6 5.7-6.5 19.1-9.6 43.6-1.7 14.2-1.7 14.8 0 16.6 1.8 1.8 1.8 1.7 2.5-4 3.2-29.1 6.4-45 10.1-50.2 1.3-1.9 2.3-2.3 4.5-1.8 2.3.4 2.7.2 2.2-1.2-1.9-5.3-7.2-6.9-9.7-3zM123.1 99.6c-11.4 9.6-20.2 45.1-24.2 97.7-1 12.9-1 16.2.1 18.5 1.2 2.4 1.5.7 3.1-17.3 3-34.1 6.9-56.5 12.9-74.3 5.4-15.8 11.2-22.7 18.4-22 2.3.3 4.9.8 6 1.3 1.8.8 1.8.7.2-1.7-3.5-5.3-11.5-6.4-16.5-2.2z"/></svg>